#N canvas 0 0 1892 963.063 10;
#X obj 638 171 soundfiler;
#X floatatom 340 195 8 0 0 0 - - -, f 8;
#X obj 636 44 bng 15 250 50 0 empty empty empty 17 7 0 10 -262144 -1
-1;
#X obj 635 64 openpanel;
#X obj 741 81 loadbang;
#X msg 637 107 read -resize \$1;
#X obj 638 150 route list;
#X obj 591 65 inlet;
#X obj 591 85 symbol;
#X msg 739 105 read -resize UK2S_Perc_Bury.wav;
#X msg 103 113 next \$1;
#X obj 104 69 bng 15 250 50 0 empty empty empty 17 7 0 10 -262144 -1
-1;
#X floatatom 473 64 5 0 0 0 - - -, f 5;
#X obj 102 161 outlet~;
#X obj 102 46 inlet;
#X obj 471 41 inlet;
#X obj 340 235 outlet;
#X obj 474 87 s \$0-playback_rate;
#X obj 638 195 s \$0-file_duration;
#X obj 635 236 array define \$0-mySample;
#X obj 638 129 list append \$0-mySample;
#X obj 598 130 print;
#X obj 340 214 expr ($f1 / 41000) * 1000;
#X obj 493 298 s \$0-playback_length;
#X obj 493 256 /;
#X obj 509 232 t b f;
#X floatatom 493 276 5 0 0 0 - - -, f 5;
#X obj 102 134 clone sampVoice 8 \$0;
#X connect 0 0 1 0;
#X connect 0 0 18 0;
#X connect 1 0 22 0;
#X connect 2 0 3 0;
#X connect 3 0 5 0;
#X connect 4 0 9 0;
#X connect 5 0 20 0;
#X connect 5 0 21 0;
#X connect 6 0 0 0;
#X connect 7 0 8 0;
#X connect 8 0 5 0;
#X connect 9 0 20 0;
#X connect 10 0 27 0;
#X connect 11 0 10 0;
#X connect 12 0 17 0;
#X connect 12 0 25 0;
#X connect 14 0 11 0;
#X connect 15 0 12 0;
#X connect 20 0 6 0;
#X connect 22 0 16 0;
#X connect 22 0 24 0;
#X connect 24 0 26 0;
#X connect 25 0 24 0;
#X connect 25 1 24 1;
#X connect 26 0 23 0;
#X connect 27 0 13 0;
