#N canvas 0 0 1892 963.125 10;
#X obj 53 546 *~ 0.5;
#X obj 55 398 *~ 16412;
#X obj 176 144 loadbang;
#X obj 176 165 samplerate~;
#X obj 239 146 bng 15 250 50 0 empty empty empty 17 7 0 10 -262144
-1 -1;
#X text 70 42 One-shot sample;
#X obj 53 186 expr 1000 * $f1 / $f2;
#X obj 52 42 bng 15 250 50 0 empty empty empty 17 7 0 10 -262144 -1
-1;
#X obj 52 126 f;
#X obj 71 290 loadbang;
#X msg 71 312 1;
#X obj 53 571 outlet~;
#X obj 52 18 inlet;
#X obj 67 104 r \$2-file_duration;
#X obj 100 378 r \$2-file_duration;
#X obj 55 468 tabread4~ \$2-mySample;
#X obj 201 239 r \$2-playback_rate;
#X obj 201 260 moses 0;
#X obj 201 279 * -1;
#X obj 52 228 pack f f f;
#X obj 80 207 < 0;
#X msg 52 248 \$2 \, \$3 \$1;
#X obj 109 208 == 0;
#X text 141 208 Sets direction: 0->1=fwd \, 1->0=bwd;
#X floatatom 316 240 5 0 0 0 - - -, f 5;
#X obj 52 269 line~;
#X obj 56 447 *~;
#X obj 200 329 vline~;
#X msg 200 304 \$1 50;
#X msg 211 507 0.5 1;
#X obj 233 530 line;
#X msg 253 507 0 25;
#X obj 52 65 t b b;
#X obj 278 484 loadbang;
#X obj 253 484 del;
#X obj 217 462 t b b;
#X connect 0 0 11 0;
#X connect 1 0 26 0;
#X connect 2 0 3 0;
#X connect 3 0 6 1;
#X connect 4 0 3 0;
#X connect 6 0 19 0;
#X connect 6 0 34 1;
#X connect 7 0 32 0;
#X connect 7 0 35 0;
#X connect 8 0 6 0;
#X connect 9 0 10 0;
#X connect 10 0 26 1;
#X connect 12 0 7 0;
#X connect 13 0 8 1;
#X connect 14 0 1 1;
#X connect 15 0 0 0;
#X connect 16 0 17 0;
#X connect 16 0 20 0;
#X connect 16 0 24 0;
#X connect 17 0 18 0;
#X connect 17 1 28 0;
#X connect 18 0 28 0;
#X connect 19 0 21 0;
#X connect 20 0 22 0;
#X connect 20 0 19 1;
#X connect 21 0 25 0;
#X connect 22 0 19 2;
#X connect 25 0 1 0;
#X connect 26 0 15 0;
#X connect 27 0 26 1;
#X connect 28 0 27 0;
#X connect 29 0 30 0;
#X connect 30 0 0 1;
#X connect 31 0 30 0;
#X connect 32 0 8 0;
#X connect 33 0 31 0;
#X connect 34 0 31 0;
#X connect 35 0 29 0;
#X connect 35 1 34 0;
